<?xml version="1.0" standalone="no"?>
<!DOCTYPE svg PUBLIC "-//W3C//DTD SVG 20010904//EN"
 "http://www.w3.org/TR/2001/REC-SVG-20010904/DTD/svg10.dtd">
<svg version="1.0" xmlns="http://www.w3.org/2000/svg"
 width="398.000000pt" height="91.000000pt" viewBox="0 0 398.000000 91.000000"
 preserveAspectRatio="xMidYMid meet">

<g transform="translate(0.000000,91.000000) scale(0.100000,-0.100000)"
fill="#000000" stroke="none">
<path d="M1094 900 c-62 -9 -129 -38 -173 -76 -87 -73 -96 -216 -17 -302 31
-35 72 -53 251 -112 174 -57 217 -82 234 -133 31 -93 -63 -154 -224 -145 -121
7 -168 41 -196 141 l-10 37 -69 0 c-82 0 -83 -1 -48 -105 24 -76 77 -137 141
-165 135 -60 362 -45 467 30 67 48 106 166 80 245 -19 56 -77 115 -145 145
-33 15 -124 48 -202 74 -158 52 -193 78 -193 140 0 72 57 106 178 106 107 0
157 -25 192 -98 l25 -52 68 0 c75 0 75 -1 52 76 -32 109 -112 173 -245 194
-72 11 -91 11 -166 0z"/>
<path d="M2023 895 c-171 -46 -293 -170 -337 -341 -20 -78 -20 -120 0 -197 47
-180 184 -315 353 -347 33 -6 341 -10 795 -10 805 0 796 -1 908 56 69 35 157
125 191 197 127 263 -16 568 -300 642 -82 21 -1530 21 -1610 0z m1667 -91
c159 -76 243 -234 219 -411 -16 -117 -103 -234 -216 -290 l-58 -28 -805 0
-805 0 -57 27 c-166 78 -253 249 -218 432 26 139 144 263 284 297 17 4 382 6
811 6 l780 -2 65 -31z"/>
<path d="M3465 668 c-3 -7 -15 -42 -27 -77 l-23 -63 -70 -26 c-106 -39 -108
-58 -9 -93 36 -13 69 -28 74 -34 5 -7 21 -41 34 -76 32 -86 50 -85 85 3 15 37
31 72 36 77 6 5 39 21 75 34 46 17 65 29 65 42 0 12 -19 24 -65 41 -36 14 -70
30 -77 37 -7 7 -22 41 -35 77 -22 63 -51 90 -63 58z"/>
<path d="M2030 455 l0 -215 155 0 155 0 0 30 0 30 -120 0 -120 0 0 185 0 185
-35 0 -35 0 0 -215z"/>
<path d="M2489 598 c-15 -40 -52 -137 -82 -215 l-55 -143 38 0 c37 0 39 2 58
53 l20 52 90 3 90 3 20 -53 c18 -49 22 -53 56 -56 20 -2 36 0 36 5 0 4 -35
100 -78 213 l-79 205 -44 3 -44 3 -26 -73z m106 -98 c15 -44 26 -83 26 -87 -1
-5 -30 -8 -66 -8 -41 0 -64 3 -62 10 49 139 62 173 68 169 4 -2 19 -40 34 -84z"/>
<path d="M2810 455 l0 -215 131 0 c184 0 219 20 219 126 0 34 -6 51 -25 69
-13 14 -30 25 -36 25 -7 0 -1 12 13 28 34 36 42 74 24 116 -23 55 -56 66 -201
66 l-125 0 0 -215z m246 144 c8 -6 14 -26 14 -45 0 -48 -28 -64 -117 -64 l-73
0 0 58 c0 32 2 61 5 64 10 10 157 -1 171 -13z m12 -185 c31 -22 30 -78 -2 -99
-22 -15 -147 -28 -173 -18 -9 3 -13 27 -13 69 l0 64 83 0 c59 0 89 -5 105 -16z"/>
<path d="M0 455 l0 -435 70 0 70 0 0 146 0 146 92 103 c51 57 96 99 99 94 3
-6 6 -50 6 -99 l0 -89 95 -113 c53 -62 111 -130 129 -151 l34 -38 92 3 91 3
-145 165 c-80 91 -173 196 -207 234 -33 38 -67 77 -73 87 -14 19 -16 17 241
255 l129 119 -87 3 -87 3 -196 -201 c-107 -110 -199 -200 -204 -200 -5 0 -9
90 -9 200 l0 200 -70 0 -70 0 0 -435z"/>
</g>
</svg>
